<svg width="16" height="12" viewBox="0 0 16 12" fill="none" xmlns="http://www.w3.org/2000/svg">
<path d="M8 1.0365C9.83851 1.0366 11.4995 1.88567 12.7979 2.85583C13.9379 3.70768 14.8031 4.66047 15.2764 5.22888V5.224L15.4531 5.43982C15.7068 5.74878 15.7063 6.24809 15.4531 6.55701L15.4541 6.55798C15.043 7.07387 14.0971 8.17301 12.7979 9.14392C11.4995 10.1142 9.83851 10.9632 8 10.9633C6.1615 10.9633 4.50051 10.114 3.20215 9.14587C1.90278 8.17695 0.956583 7.0818 0.545898 6.57458L0.544922 6.57361C0.277669 6.23466 0.27494 5.76787 0.544922 5.44177L0.951172 4.95642C1.45155 4.38435 2.22763 3.584 3.20215 2.85583C4.50055 1.88572 6.1615 1.0365 8 1.0365ZM8 2.24353C6.48689 2.24353 5.06331 2.96939 3.92285 3.8158C2.83646 4.6221 2.01764 5.53103 1.63477 5.99841C2.02655 6.45429 2.84591 7.36271 3.92969 8.17224C5.06829 9.02266 6.48736 9.75623 8 9.75623C9.51294 9.75612 10.932 9.0303 12.0703 8.18396C13.1553 7.37728 13.974 6.46733 14.3643 5.99939C13.9738 5.5313 13.1549 4.62217 12.0703 3.8158C10.932 2.96946 9.51294 2.24363 8 2.24353Z" fill="#545F7D" stroke="#545F7D" stroke-width="0.2"/>
<path d="M8.00049 2.90857C9.70365 2.90876 11.0923 4.29716 11.0923 6.00037C11.0921 7.70342 9.70354 9.09197 8.00049 9.09216C6.29728 9.09216 4.90888 7.70353 4.90869 6.00037C4.90869 4.29704 6.2971 2.90857 8.00049 2.90857ZM8.00049 4.11658C6.96767 4.11658 6.1167 4.96747 6.1167 6.00037C6.1168 7.0325 6.96767 7.88416 8.00049 7.88416C9.03309 7.88396 9.88417 7.03298 9.88428 6.00037C9.88428 4.96766 9.03315 4.11677 8.00049 4.11658Z" fill="#545F7D" stroke="#545F7D" stroke-width="0.2"/>
</svg>
